<mxfile host="app.diagrams.net" modified="2023-11-26T14:00:36.619Z" agent="Mozilla/5.0 (Windows NT 10.0; Win64; x64) AppleWebKit/537.36 (KHTML, like Gecko) Chrome/118.0.0.0 Safari/537.36 OPR/104.0.0.0 (Edition std-1)" etag="Bs4BfaPbUJHOqoltHfHl" version="22.1.4" type="github">
  <diagram name="Seite-1" id="VoximPgfXESim8kF5o4X">
    <mxGraphModel dx="1009" dy="542" grid="1" gridSize="10" guides="1" tooltips="1" connect="1" arrows="1" fold="1" page="1" pageScale="1" pageWidth="827" pageHeight="1169" math="0" shadow="0">
      <root>
        <mxCell id="0" />
        <mxCell id="1" parent="0" />
        <mxCell id="Ijv35LxQ1c8h_hiRQsC4-1" value="Speicher-Block" style="whiteSpace=wrap;html=1;fillColor=none;verticalAlign=top;" vertex="1" parent="1">
          <mxGeometry x="255" y="148" width="318" height="402" as="geometry" />
        </mxCell>
        <mxCell id="Ijv35LxQ1c8h_hiRQsC4-2" value="GUI öffnen" style="ellipse;whiteSpace=wrap;html=1;fillColor=#0e6e7c;fontColor=#FFFFFF;" vertex="1" parent="1">
          <mxGeometry x="337.5" y="200" width="160" height="40" as="geometry" />
        </mxCell>
        <mxCell id="Ijv35LxQ1c8h_hiRQsC4-3" style="edgeStyle=orthogonalEdgeStyle;orthogonalLoop=1;jettySize=auto;html=1;entryX=0;entryY=0.5;entryDx=0;entryDy=0;endArrow=none;endFill=0;rounded=1;" edge="1" parent="1" source="Ijv35LxQ1c8h_hiRQsC4-5" target="Ijv35LxQ1c8h_hiRQsC4-2">
          <mxGeometry relative="1" as="geometry">
            <Array as="points">
              <mxPoint x="205" y="397" />
              <mxPoint x="205" y="220" />
            </Array>
          </mxGeometry>
        </mxCell>
        <mxCell id="Ijv35LxQ1c8h_hiRQsC4-4" style="edgeStyle=orthogonalEdgeStyle;rounded=1;orthogonalLoop=1;jettySize=auto;html=1;endArrow=none;endFill=0;entryX=0;entryY=0.517;entryDx=0;entryDy=0;entryPerimeter=0;" edge="1" parent="1" source="Ijv35LxQ1c8h_hiRQsC4-5" target="Ijv35LxQ1c8h_hiRQsC4-8">
          <mxGeometry relative="1" as="geometry">
            <Array as="points">
              <mxPoint x="204" y="397" />
              <mxPoint x="204" y="485" />
            </Array>
          </mxGeometry>
        </mxCell>
        <mxCell id="Ijv35LxQ1c8h_hiRQsC4-5" value="Spieler" style="shape=umlActor;verticalLabelPosition=bottom;labelBackgroundColor=#ffffff;verticalAlign=top;html=1;fillColor=none;" vertex="1" parent="1">
          <mxGeometry x="120" y="367" width="30" height="60" as="geometry" />
        </mxCell>
        <mxCell id="Ijv35LxQ1c8h_hiRQsC4-6" value="Speicherinhalt inspizieren" style="ellipse;whiteSpace=wrap;html=1;fillColor=#0e6e7c;fontColor=#FFFFFF;" vertex="1" parent="1">
          <mxGeometry x="337.5" y="288.5" width="160" height="40" as="geometry" />
        </mxCell>
        <mxCell id="Ijv35LxQ1c8h_hiRQsC4-7" value="GUI schließen" style="ellipse;whiteSpace=wrap;html=1;fillColor=#0e6e7c;fontColor=#FFFFFF;" vertex="1" parent="1">
          <mxGeometry x="337.5" y="377.5" width="160" height="40" as="geometry" />
        </mxCell>
        <mxCell id="Ijv35LxQ1c8h_hiRQsC4-8" value="Programm-Item einlegen &lt;br&gt;und Programm in Speicher laden" style="ellipse;whiteSpace=wrap;html=1;fillColor=#234f7c;fontColor=#FFFFFF;" vertex="1" parent="1">
          <mxGeometry x="333" y="444" width="160" height="78" as="geometry" />
        </mxCell>
        <mxCell id="Ijv35LxQ1c8h_hiRQsC4-9" value="&amp;lt;&amp;lt;Extends&lt;span style=&quot;color: rgb(0 , 0 , 0)&quot;&gt;&amp;gt;&amp;gt;&lt;/span&gt;" style="endArrow=block;endSize=16;endFill=0;html=1;dashed=1;exitX=0.495;exitY=0.001;exitDx=0;exitDy=0;exitPerimeter=0;entryX=0.501;entryY=1.013;entryDx=0;entryDy=0;entryPerimeter=0;" edge="1" parent="1" source="Ijv35LxQ1c8h_hiRQsC4-6" target="Ijv35LxQ1c8h_hiRQsC4-2">
          <mxGeometry width="160" relative="1" as="geometry">
            <mxPoint x="146.5" y="715" as="sourcePoint" />
            <mxPoint x="306.5" y="715" as="targetPoint" />
          </mxGeometry>
        </mxCell>
        <mxCell id="Ijv35LxQ1c8h_hiRQsC4-10" style="edgeStyle=orthogonalEdgeStyle;orthogonalLoop=1;jettySize=auto;html=1;endArrow=none;endFill=0;rounded=1;" edge="1" parent="1" source="Ijv35LxQ1c8h_hiRQsC4-5" target="Ijv35LxQ1c8h_hiRQsC4-6">
          <mxGeometry relative="1" as="geometry">
            <Array as="points">
              <mxPoint x="205" y="397" />
              <mxPoint x="205" y="309" />
            </Array>
            <mxPoint x="160" y="407.28571428571433" as="sourcePoint" />
            <mxPoint x="347.42857142857133" y="230.1428571428571" as="targetPoint" />
          </mxGeometry>
        </mxCell>
        <mxCell id="Ijv35LxQ1c8h_hiRQsC4-11" style="edgeStyle=orthogonalEdgeStyle;orthogonalLoop=1;jettySize=auto;html=1;endArrow=none;endFill=0;rounded=1;" edge="1" parent="1" source="Ijv35LxQ1c8h_hiRQsC4-5" target="Ijv35LxQ1c8h_hiRQsC4-7">
          <mxGeometry relative="1" as="geometry">
            <Array as="points">
              <mxPoint x="320" y="397" />
              <mxPoint x="320" y="397" />
            </Array>
            <mxPoint x="160" y="407.28571428571433" as="sourcePoint" />
            <mxPoint x="347.5617585321045" y="319.28571428571433" as="targetPoint" />
          </mxGeometry>
        </mxCell>
        <mxCell id="Ijv35LxQ1c8h_hiRQsC4-12" value="&amp;lt;&amp;lt;Extends&lt;span style=&quot;color: rgb(0 , 0 , 0)&quot;&gt;&amp;gt;&amp;gt;&lt;/span&gt;" style="endArrow=block;endSize=16;endFill=0;html=1;dashed=1;edgeStyle=elbowEdgeStyle;" edge="1" parent="1" source="Ijv35LxQ1c8h_hiRQsC4-8" target="Ijv35LxQ1c8h_hiRQsC4-2">
          <mxGeometry x="-0.1582" width="160" relative="1" as="geometry">
            <mxPoint x="143.5" y="593" as="sourcePoint" />
            <mxPoint x="303.5" y="593" as="targetPoint" />
            <Array as="points">
              <mxPoint x="536" y="334" />
            </Array>
            <mxPoint as="offset" />
          </mxGeometry>
        </mxCell>
      </root>
    </mxGraphModel>
  </diagram>
</mxfile>
